<?xml version="1.0" encoding="UTF-8"?>
<svg id="Layer_1" data-name="Layer 1" xmlns="http://www.w3.org/2000/svg" version="1.1" viewBox="0 0 20 17.7">
  <defs>
    <style>
      .cls-1 {
        fill: #ea3606;
        stroke-width: 0px;
      }
    </style>
  </defs>
  <path class="cls-1" d="M20,12.5c-.2.3-.5.3-.8.3-.9,0-1.7,0-2.5.2-1.2.3-2.3.8-3.4,1.3-1.4.7-2.7,1.5-4.1,2.2-1.5.8-3.1,1.2-4.8,1.1-.7,0-1.1-.3-1.3-1-1.1-3.6-2-7.3-3.1-11-.1-.5,0-.8.6-.7,2.2,0,4.2-.6,6-1.6,1.4-.7,2.7-1.5,4.1-2.2C12.3.4,13.9,0,15.7,0s1.1.2,1.3,1c.9,3.5,1.9,6.9,2.8,10.4,0,.3.2.5.2.8v.4h0ZM7.3,12.3c0,.3,0,.6.2.9.2.8.4,1.5.6,2.3,1.1-.6,2.2-1.2,3.3-1.8-.3-1.1-.6-2.1-.9-3.2-.5.3-1,.6-1.5.8-.6.3-1.2.6-1.8.9-.2-.6-.3-1.1-.5-1.7-.2-.6-.3-1.2-.5-1.8-1.2.5-2.3.7-3.6.8.3,1.2.6,2.4,1,3.5.4,0,.9,0,1.3-.1.8-.2,1.5-.5,2.3-.7h0ZM12.9,5.2c-1.1.6-2.2,1.2-3.3,1.8.3,1.2.6,2.4,1,3.5,1.1-.6,2.2-1.2,3.3-1.8-.3-1.1-.6-2.3-1-3.5ZM6.3,8.8c1.1-.6,2.1-1.2,3.1-1.7,0,0,.1-.2,0-.3-.2-.6-.3-1.2-.5-1.8,0-.3-.2-.7-.3-1-1.1.6-2.1,1.1-3.1,1.7,0,0,0,.2,0,.3.2,1,.5,1.9.8,3h0v-.2ZM18.1,11.2c-.2-.9-.5-1.9-.8-2.9,0,0-.1-.1-.2-.1-1.1,0-2.2.3-3.2.7.3,1.1.6,2.1.8,3.1,1.2-.2,2.3-.5,3.4-.7h0ZM12.9,5.2c1.2-.2,2.3-.5,3.4-.7-.3-1-.5-2-.8-3-1.2,0-2.3.3-3.4.7.3,1,.6,2,.8,3Z"/>
</svg>